:SAMPLES-PER-SECOND 30
:FULLY-SPECIFIED
:DEGREES
293
root  40.8857 38.5606 5.96651 -175.481 -79.7628 172.532
RightUpLeg  0.453143 -4.19501 2.13016
RightLeg  19.8841 9.05406 1.733
RightFoot  -16.4012 -0.388939 -6.28901
RightToes  -9.31324e-010 0 -3.6325e-017
Spine  6.43314 1.54857 12.021
Spine1  6.04989 3.84995 -6.16161
HEad  -1.12723 -28.5582 -3.35277
LeftShoulder1  -0.365867 4.46061 -32.0583
LeftArm  3.48052 15.1294 -37.5747
LeftForeArm  26.3031 -14.9626 -7.04972
LeftHand  -0.0820587 7.41136 -2.20815
RightShoulder  -0.675426 -5.38931 29.098
RightArm  28.437 8.19153 51.0076
RightForeArm  6.48771 31.3595 6.52313
RightHand  -0.494111 7.43617 -4.82701
LeftUpLeg  -22.1458 0.0604975 4.36182
LeftLeg  33.2143 -4.60225 -2.91706
LeftFoot  -0.250143 0.451168 -4.62739
LeftToes  8.61288e-010 -5.99147e-011 2.1039e-011
294
root  39.4857 38.5903 5.9403 -175.265 -78.6781 172.419
RightUpLeg  3.86547 -5.47336 0.85811
RightLeg  17.4648 11.6314 2.15966
RightFoot  -17.1712 -0.427654 -6.11478
RightToes  -9.31324e-010 0 -3.6325e-017
Spine  5.97686 1.78074 11.4528
Spine1  6.30963 3.99609 -6.81503
HEad  -1.54207 -27.8196 -3.03502
LeftShoulder1  -0.252113 4.17248 -31.5777
LeftArm  0.510173 16.2013 -37.1232
LeftForeArm  29.1101 -12.8788 -7.59193
LeftHand  -0.0950152 7.49695 -2.78221
RightShoulder  -0.766185 -5.6176 29.5871
RightArm  30.3917 10.4651 51.4814
RightForeArm  6.81391 32.9415 6.91321
RightHand  -0.491728 8.08431 -4.59729
LeftUpLeg  -21.7799 -0.248253 5.03924
LeftLeg  20.6283 -5.78045 -1.98073
LeftFoot  0.344278 0.500941 -4.92598
LeftToes  8.61288e-010 -5.99147e-011 2.1039e-011
295
root  38.0772 38.5722 5.9176 -174.966 -78.0865 171.891
RightUpLeg  7.60767 -6.28932 -0.436697
RightLeg  15.0838 13.4222 2.0862
RightFoot  -17.8448 -0.448512 -5.76246
RightToes  -9.31324e-010 0 -3.6325e-017
Spine  5.98952 1.62598 9.9294
Spine1  6.43618 3.54205 -6.20187
HEad  -1.85199 -26.7591 -3.13802
LeftShoulder1  -0.329305 4.3695 -31.9143
LeftArm  -1.59147 17.0022 -36.4415
LeftForeArm  31.7485 -10.8836 -7.97935
LeftHand  -0.103822 7.49088 -3.24247
RightShoulder  -0.658459 -5.35758 28.8204
RightArm  32.3427 12.1586 52.7343
RightForeArm  6.99433 33.1085 6.94793
RightHand  -0.44164 7.91249 -4.21684
LeftUpLeg  -20.7141 0.575457 4.93393
LeftLeg  8.55236 -7.55051 -0.540078
LeftFoot  -0.895604 0.547814 -5.91264
LeftToes  8.61288e-010 -5.99147e-011 2.1039e-011
296
root  36.6221 38.4557 5.89731 -174.23 -77.3656 170.686
RightUpLeg  11.3095 -6.43498 -1.79287
RightLeg  13.3628 14.6102 1.69259
RightFoot  -18.8229 -0.467352 -5.20512
RightToes  -9.31324e-010 0 -3.6325e-017
Spine  5.8982 1.61526 8.58683
Spine1  7.08353 3.5196 -6.30962
HEad  -1.84411 -25.5487 -2.43861
LeftShoulder1  -0.331015 4.37677 -31.7881
LeftArm  -3.06812 17.934 -36.1498
LeftForeArm  33.6787 -9.84567 -7.91959
LeftHand  -0.154533 8.53091 -3.73305
RightShoulder  -0.653839 -5.34329 28.8334
RightArm  34.8548 13.7668 53.6289
RightForeArm  5.52744 32.1149 6.77332
RightHand  -0.528889 7.93896 -4.96698
LeftUpLeg  -19.6444 4.21523 3.62223
LeftLeg  -0.338742 -6.51422 0.38493
LeftFoot  -2.39687 0.599996 -7.59469
LeftToes  8.61288e-010 -5.99147e-011 2.1039e-011
297
root  35.0298 38.1876 5.9434 -173.703 -76.9047 169.69
RightUpLeg  14.4592 -6.5629 -3.35387
RightLeg  13.3063 15.5762 1.79225
RightFoot  -20.5058 -0.46029 -4.0292
RightToes  -9.31324e-010 0 -3.6325e-017
Spine  5.85792 1.70438 7.49286
Spine1  7.17282 3.51303 -6.036
HEad  -1.36522 -25.1453 -2.04641
LeftShoulder1  -0.31568 4.33247 -31.9627
LeftArm  -3.21487 18.8589 -35.6107
LeftForeArm  35.0381 -9.74122 -7.8449
LeftHand  -0.188095 8.45538 -5.08224
RightShoulder  -0.702218 -5.46475 29.1215
RightArm  37.3185 14.5728 53.9974
RightForeArm  4.06536 29.8952 6.29276
RightHand  -0.576074 8.23189 -5.27128
LeftUpLeg  -19.1728 4.73924 3.26072
LeftLeg  -3.43774 1.23948 -0.85787
LeftFoot  -3.57655 0.710507 -10.1355
LeftToes  8.61288e-010 -5.99147e-011 2.1039e-011
298
root  33.3469 37.8747 6.03767 -173.203 -77.1119 168.919
RightUpLeg  17.0309 -5.63621 -4.37324
RightLeg  14.3307 15.231 1.97077
RightFoot  -21.9151 -0.336849 -2.03715
RightToes  -9.31324e-010 0 -3.6325e-017
Spine  5.40509 1.63288 7.29057
Spine1  7.40893 3.55337 -6.52928
HEad  -0.887382 -25.3102 -1.59714
LeftShoulder1  -0.322199 4.35564 -31.6938
LeftArm  -3.44008 18.823 -35.3756
LeftForeArm  36.2673 -9.14849 -7.95808
LeftHand  -0.172252 8.02245 -5.28526
RightShoulder  -0.759115 -5.59923 29.5777
RightArm  39.0232 14.2864 54.0535
RightForeArm  2.28639 27.0691 5.6716
RightHand  -0.634523 8.19897 -5.77951
LeftUpLeg  -20.2702 4.12598 2.00756
LeftLeg  0.492062 6.43821 -0.806858
LeftFoot  -1.8416 0.464763 -5.40808
LeftToes  8.61288e-010 -5.99147e-011 2.1039e-011
299
root  31.5719 37.5952 6.12285 -172.252 -77.0201 167.822
RightUpLeg  19.3165 -3.59028 -5.35781
RightLeg  15.6913 14.3498 2.76365
RightFoot  -22.3874 -0.113444 0.403642
RightToes  -9.31324e-010 0 -3.6325e-017
Spine  4.70423 1.9236 6.64219
Spine1  7.63481 3.84168 -6.62938
HEad  0.545781 -25.3851 -1.60266
LeftShoulder1  -0.386517 4.51669 -32.0108
LeftArm  -2.62511 18.9262 -34.7391
LeftForeArm  35.6929 -9.65307 -8.01714
LeftHand  -0.215862 8.69047 -5.61521
RightShoulder  -0.753288 -5.57072 29.7808
RightArm  40.4181 12.9728 53.601
RightForeArm  0.374677 23.4702 5.21836
RightHand  -0.521187 7.83532 -4.93317
LeftUpLeg  -21.9136 3.89315 0.303217
LeftLeg  7.41923 6.43899 0.0860982
LeftFoot  1.80607 0.0107681 -0.457208
LeftToes  8.61288e-010 -5.99147e-011 2.1039e-011
